<!--version="1.0" standalone="no"--><!DOCTYPE html PUBLIC "-//W3C//DTD SVG 20010904//EN" "http://www.w3.org/TR/2001/REC-SVG-20010904/DTD/svg10.dtd"><svg version="1.0" xmlns="http://www.w3.org/2000/svg" width="413.333" height="413.333" viewBox="0 0 310 310" preserveAspectRatio="xMidYMid meet"><g transform="translate(0.000000,310.000000) scale(0.100000,-0.100000)" fill="#000000" stroke="none"><path d="M980 3090c-51-12-67-39-75-122-9-103-10-105-68-127-29-10-64-24-79-30-24-9-33-5-98 49-110 93-112 92-309-90-119-110-171-173-171-207 0-17 21-47 66-94l67-68-27-56c-14-31-26-60-26-65 0-21-49-38-123-44-96-8-104-12-122-47-12-22-15-74-15-247v-218l39-22c31-18 55-22 118-22h80l37-86 36-86-59-64c-33-34-62-72-66-84-12-38 45-104 254-293 66-61 78-67 116-67 37 0 50 7 105 56 49 43 67 54 84 49 11-4 42-9 67-12 42-5 48-3 72 27 15 17 27 42 27 54 0 31-43 72-112 107-84 42-111 39-186-23l-63-51-72 71-72 72 47 47c77 80 78 95 18 214-13 24-36 80-52 124s-35 87-43 95c-10 10-45 16-103 20l-87 5v200l75 5c41 3 85 11 98 18 20 12 62 87 62 113 0 5 20 51 44 102 69 147 70 145-13 230l-46 48 73 70 73 70 47-42c26-23 61-48 78-56 29-14 35-13 110 17 43 18 120 48 169 66 114 42 132 61 141 154l7 70h207v-74c0-97 15-114 130-151 47-15 110-39 140-53 114-52 131-50 211 25l50 47 72-72 71-72-30-32c-51-55-74-90-74-113 0-32 58-142 87-165 49-39 130-18 147 38 4 10 0 38-9 61-18 51-14 58 55 124 42 41 50 55 50 85 0 34-10 47-131 165-197 193-233 213-290 164-15-12-47-39-71-60l-45-37-69 26c-113 42-114 43-114 128 0 60-4 79-23 107l-23 34-214 2c-118 0-231-3-250-7z"/><path d="M1040 2387c-196-70-319-234-320-427 0-116 54-244 133-316 41-37 72-42 117-19 53 27 49 85-10 166-106 147-56 334 113 421 33 17 59 21 122 21 83 0 106-7 214-68 84-48 151-24 151 54 0 34-6 45-45 79-120 106-321 143-475 89z"/><path d="M1789 2099c-24-26-29-40-31-97l-3-66-62-24-63-24-47 40c-74 61-87 66-129 46-47-23-272-239-280-270-8-33 1-54 46-99 21-22 39-47 40-55 0-8-9-37-19-65l-19-50-70-6c-49-5-80-14-101-29l-31-21v-189c0-181 1-190 23-215 18-21 33-27 82-31 100-9 99-8 119-68l19-55-47-52c-75-83-70-97 102-263 100-97 152-131 188-122 14 4 45 25 68 46 50 46 72 49 136 17l45-22 5-65c3-40 12-76 24-93l19-29 201 4c134 2 208 7 222 15 25 14 44 61 44 109 0 52 9 64 68 90 30 13 56 24 57 24 2 0 23-18 47-40 60-55 90-66 131-49 17 7 89 70 160 139 150 149 151 152 76 234l-51 56 22 55c24 60 25 60 124 69 34 3 66 11 75 20 37 38 40 401 3 438-6 6-49 16-94 22l-82 11-25 57-24 58 51 54c78 82 76 87-72 232-68 66-141 129-161 139-35 16-41 16-70 2-18-9-48-29-68-46-40-36-42-36-107-15-51 17-60 30-60 92 0 49-25 101-55 112-15 6-110 10-212 10h-185l-29-31zm291-189c0-48 22-95 51-111 12-6 51-22 88-34 36-13 95-36 130-50 72-30 83-28 152 27l39 32 45-44 45-44-24-26c-67-73-69-94-21-190 20-39 45-95 56-125 26-70 54-91 130-100l60-7-3-57-3-56-63-6c-76-7-93-21-123-102-13-34-38-92-56-130-18-37-33-77-33-87 0-11 18-40 41-65 22-24 39-48 37-53-5-12-84-82-93-82-4 0-25 16-46 35-49 44-84 45-170 6-35-16-95-39-132-51-80-27-99-50-107-124l-5-51h-120l-7 50c-12 84-18 89-172 150-78 30-152 55-166 55-24 0-41-9-104-54l-27-19-42 41c-31 31-39 46-32 56 6 7 25 32 43 56 38 50 39 43-30 200-62 144-78 160-154 169l-59 6-3 56-3 56 53 6c88 11 95 19 184 216 52 116 53 107-10 186l-29 36 45 46 46 46 39-31c74-58 79-58 184-14 52 21 115 46 140 56 65 23 91 55 97 116l5 50h127v-40z"/><path d="M1895 1557c-118-40-207-117-258-224-27-59-31-78-30-148 0-106 26-173 97-251 82-91 182-133 317-134 84 0 150 20 227 69 178 116 225 354 103 531-41 59-136 131-198 151-58 17-211 21-258 6zm223-186c74-38 116-108 116-191-1-66-19-104-72-152-81-73-213-73-294 0-46 41-78 107-78 158 0 71 59 160 125 190 46 20 159 18 203-5z"/></g></svg>