<?xml version="1.0" standalone="no"?>
<!DOCTYPE svg PUBLIC "-//W3C//DTD SVG 20010904//EN"
 "http://www.w3.org/TR/2001/REC-SVG-20010904/DTD/svg10.dtd">
<svg version="1.0" xmlns="http://www.w3.org/2000/svg"
 width="3305.000000pt" height="1192.000000pt" viewBox="0 0 3305.000000 1192.000000"
 preserveAspectRatio="xMidYMid meet">

<g transform="translate(0.000000,1192.000000) scale(0.100000,-0.100000)"
fill="#263e7b" stroke="none">
<path d="M4585 11910 c-419 -9 -510 -17 -597 -57 -141 -63 -189 -179 -223
-538 -33 -342 -54 -382 -239 -451 -39 -15 -147 -56 -241 -91 -141 -54 -177
-64 -213 -60 -55 6 -126 54 -335 226 -188 155 -233 188 -307 218 -110 45 -208
24 -358 -77 -230 -155 -969 -849 -1163 -1092 -94 -118 -147 -213 -156 -276
-12 -87 72 -206 331 -472 89 -91 174 -179 190 -197 l28 -31 -77 -163 c-79
-166 -145 -327 -145 -353 0 -23 -64 -72 -124 -95 -86 -32 -235 -59 -421 -76
-200 -18 -313 -39 -367 -66 -26 -13 -52 -40 -78 -79 -77 -121 -81 -169 -87
-1150 l-5 -835 109 -62 c191 -108 266 -123 644 -123 l236 0 28 -62 c15 -35 83
-195 151 -357 106 -248 123 -296 112 -309 -7 -9 -78 -86 -157 -172 -170 -183
-273 -305 -320 -379 -28 -43 -35 -63 -34 -101 1 -61 50 -157 140 -271 93 -117
467 -488 789 -782 408 -372 431 -388 583 -395 177 -8 221 13 473 229 86 74
183 150 214 169 69 41 93 42 249 11 61 -12 157 -25 216 -28 135 -7 158 2 241
106 72 89 118 181 118 234 0 61 -38 126 -119 207 -95 93 -199 163 -366 245
-193 95 -291 121 -393 105 -111 -18 -192 -69 -451 -279 l-175 -142 -297 297
-298 298 140 144 c250 258 303 339 302 467 0 95 -31 180 -157 445 -108 225
-145 311 -245 576 -69 182 -122 304 -153 347 -45 63 -164 88 -543 112 -132 8
-246 15 -252 15 -10 0 -13 90 -13 415 l0 414 32 5 c18 3 83 8 143 11 235 13
473 49 536 81 76 38 228 290 260 429 18 81 64 192 207 500 154 334 192 436
192 522 0 120 -32 170 -270 416 -99 103 -180 188 -180 190 0 5 592 572 601
575 5 2 71 -51 146 -117 220 -193 377 -298 474 -316 57 -11 134 14 539 174
206 82 445 175 530 206 203 76 308 125 384 179 142 101 177 196 214 576 l17
175 433 3 432 2 0 -232 c0 -255 9 -336 45 -415 53 -117 164 -182 525 -303 220
-75 416 -151 666 -259 375 -162 451 -144 814 197 74 70 142 133 151 140 14 11
55 -27 309 -288 l293 -300 -44 -49 c-24 -27 -83 -93 -131 -146 -176 -194 -253
-319 -252 -409 1 -95 107 -335 233 -528 105 -161 178 -216 314 -238 150 -24
319 47 392 164 28 46 30 56 29 140 0 76 -6 108 -34 191 -47 139 -47 195 2 266
20 30 112 131 206 225 206 208 227 243 227 374 0 75 -4 91 -29 137 -45 82
-176 222 -507 544 -362 352 -460 444 -597 558 -258 215 -389 265 -522 198 -30
-15 -143 -102 -250 -193 -107 -91 -225 -190 -262 -221 l-67 -55 -258 97 c-372
140 -437 176 -476 265 -18 39 -22 75 -28 275 -4 127 -13 253 -19 280 -17 65
-49 128 -117 231 l-56 84 -371 0 c-204 0 -441 2 -526 4 -85 2 -326 1 -535 -4z"/>
<path d="M15775 9359 c-310 -40 -814 -234 -1150 -442 -326 -202 -706 -656
-839 -1002 -147 -385 -164 -1055 -35 -1440 137 -409 561 -842 1135 -1159 348
-192 673 -313 1309 -486 645 -176 902 -273 1087 -413 143 -107 221 -218 248
-352 7 -33 12 -123 12 -200 -1 -206 -27 -287 -132 -419 -108 -137 -263 -238
-463 -304 -189 -62 -285 -76 -542 -76 -375 0 -631 52 -900 185 -226 112 -439
304 -674 607 -74 96 -151 187 -170 203 -50 41 -98 52 -170 39 -205 -37 -882
-333 -1096 -479 -94 -64 -104 -82 -81 -152 55 -169 300 -589 460 -789 92 -114
135 -159 239 -246 168 -141 378 -268 702 -424 574 -277 1012 -382 1595 -382
405 0 776 57 1140 174 728 235 1249 646 1537 1213 142 279 177 475 177 995 1
479 -24 590 -188 860 -243 398 -558 676 -1036 916 -276 138 -422 189 -1172
409 -566 167 -850 260 -988 326 -231 110 -482 313 -544 440 -34 71 -42 162
-27 298 15 130 43 238 82 321 44 94 197 244 300 293 153 74 373 104 699 94
351 -10 539 -62 739 -204 70 -50 258 -234 455 -447 66 -70 143 -144 171 -163
l52 -34 94 42 c678 300 855 373 992 409 160 42 181 62 157 151 -26 97 -173
375 -261 495 -105 143 -399 435 -604 599 -252 203 -536 349 -810 419 -377 95
-1197 163 -1500 125z"/>
<path d="M26706 9313 l-149 -4 6 -2377 c8 -2601 22 -4870 33 -5054 l7 -118
1947 0 1948 0 328 164 c381 189 472 240 684 381 192 128 291 208 443 354 377
366 686 872 869 1426 239 721 282 1592 122 2430 -148 767 -442 1336 -942 1816
-431 415 -904 675 -1497 823 -467 117 -809 138 -2550 156 -506 5 -960 9 -1010
8 -49 -2 -157 -4 -239 -5z m2494 -1518 c454 -40 909 -132 1106 -224 305 -143
585 -417 748 -731 124 -240 195 -505 243 -900 22 -181 25 -713 5 -890 -67
-599 -190 -888 -522 -1233 -179 -186 -296 -273 -491 -367 -214 -102 -527 -185
-794 -211 -125 -12 -1154 -7 -1207 6 -24 7 -27 12 -32 69 -12 122 -27 1689
-28 2886 -1 1227 4 1464 34 1527 17 36 66 60 148 71 107 15 607 14 790 -3z"/>
<path d="M20430 9300 c-288 -17 -401 -50 -413 -122 -3 -18 -11 -440 -18 -938
-11 -913 -6 -5573 7 -6193 l7 -287 788 0 789 0 0 463 c0 564 21 1745 36 2086
l7 133 101 -6 c162 -11 511 -46 604 -61 105 -17 92 -4 276 -280 152 -227 309
-487 415 -685 71 -132 88 -159 243 -385 96 -140 206 -322 402 -663 172 -302
267 -456 309 -508 69 -83 189 -107 677 -134 445 -24 1076 8 1158 59 72 44
-1295 2226 -1622 2591 -79 87 -90 116 -83 213 6 86 30 145 68 164 13 7 67 24
119 38 55 15 149 52 225 90 341 169 639 487 835 890 156 321 210 589 210 1046
0 443 -29 656 -131 959 -149 447 -451 837 -837 1084 -280 178 -709 349 -967
385 -141 20 -488 42 -800 51 -429 13 -2235 21 -2405 10z m1820 -1495 c618 -23
854 -35 964 -46 285 -29 397 -83 542 -262 168 -209 246 -491 216 -785 -36
-358 -215 -634 -502 -771 -238 -114 -572 -151 -1387 -151 l-463 0 0 1022 0
1021 118 -6 c64 -4 295 -13 512 -22z"/>
<path d="M4751 9049 c-377 -40 -782 -215 -1087 -472 -407 -342 -640 -814 -661
-1337 -19 -494 197 -1043 536 -1362 95 -90 148 -123 232 -144 52 -13 72 -14
122 -4 114 22 208 74 257 142 91 125 47 309 -140 587 -185 277 -248 475 -237
746 7 168 38 292 111 440 123 248 330 451 592 583 142 71 218 84 508 83 320 0
429 -29 721 -189 292 -160 374 -192 498 -192 127 0 234 69 271 175 27 77 32
199 11 271 -15 52 -27 69 -103 144 -391 385 -1028 592 -1631 529z"/>
<path d="M7485 7790 c-138 -151 -148 -183 -164 -509 -5 -111 -11 -204 -13
-205 -4 -3 -451 -175 -491 -188 -25 -9 -34 -4 -125 74 -99 85 -217 181 -285
231 -20 16 -67 42 -103 59 -52 24 -74 30 -112 26 -127 -13 -264 -113 -662
-483 -283 -263 -586 -582 -628 -660 -10 -19 -16 -55 -17 -100 0 -97 30 -154
151 -285 113 -123 176 -203 200 -252 16 -34 16 -39 -10 -129 -29 -99 -123
-359 -135 -372 -4 -4 -86 -15 -182 -23 -313 -27 -423 -58 -569 -156 l-90 -61
0 -651 c0 -649 8 -858 32 -928 32 -92 119 -175 212 -204 28 -8 137 -24 241
-34 269 -28 314 -39 361 -92 32 -34 46 -66 109 -250 l58 -167 -130 -143 c-219
-242 -255 -298 -256 -398 -1 -129 82 -242 437 -595 403 -402 601 -570 763
-648 165 -79 241 -53 504 174 206 177 287 181 599 24 149 -75 133 -44 150
-280 18 -249 49 -361 132 -488 l52 -79 155 6 c86 3 318 8 516 11 600 10 955
28 1058 56 120 32 199 206 216 476 6 96 14 152 26 177 36 75 117 127 373 236
l122 52 43 -34 c23 -20 78 -68 122 -108 127 -116 219 -186 292 -222 60 -29 77
-33 148 -33 127 0 169 26 460 284 168 148 708 688 767 766 70 93 92 142 92
205 0 95 -27 134 -276 408 l-137 151 74 182 c41 100 87 198 103 217 54 68 112
84 422 117 159 16 268 42 309 72 82 60 131 423 131 968 0 539 -43 835 -127
878 -47 25 -247 65 -482 96 -124 17 -228 34 -231 38 -7 8 -149 338 -185 431
l-17 42 144 153 c197 208 227 244 254 302 44 93 23 185 -67 299 -156 197 -712
729 -986 943 -91 71 -173 112 -243 120 -88 10 -248 -76 -450 -243 -72 -59
-125 -95 -150 -102 -53 -13 -122 0 -270 50 -219 75 -248 113 -261 351 -11 213
-51 336 -142 434 -55 60 -80 71 -188 83 -138 16 -679 30 -1144 29 l-410 0 -90
-99z m1186 -810 c4 -124 10 -168 28 -220 34 -97 69 -155 125 -208 54 -50 124
-82 421 -188 72 -25 263 -98 425 -162 264 -103 303 -116 372 -120 119 -7 185
28 431 230 l108 89 189 -181 189 -182 -92 -102 c-211 -230 -256 -327 -224
-481 16 -77 47 -149 190 -450 52 -110 123 -270 157 -355 35 -85 78 -180 96
-211 65 -109 161 -177 301 -213 45 -12 361 -56 400 -56 8 0 -12 -458 -21 -467
-3 -3 -89 -14 -192 -24 -274 -27 -345 -49 -420 -131 -59 -64 -82 -108 -174
-338 -46 -113 -119 -284 -163 -380 -99 -219 -171 -392 -184 -446 -18 -73 19
-144 167 -316 113 -131 155 -199 141 -226 -23 -44 -298 -289 -359 -321 -29
-15 -56 2 -195 122 -209 180 -346 197 -632 76 -262 -109 -444 -181 -595 -234
-206 -72 -289 -113 -355 -176 -89 -84 -123 -187 -146 -435 l-12 -134 -253 0
-254 0 0 28 c0 60 -50 342 -71 398 -47 127 -159 202 -537 353 -392 157 -724
271 -817 278 -100 8 -171 -28 -484 -249 l-73 -52 -127 129 c-123 126 -172 186
-185 231 -5 17 21 59 125 195 72 96 140 192 150 214 33 71 23 140 -44 310 -64
165 -258 598 -328 735 -143 279 -221 334 -524 366 -77 8 -154 17 -171 20 l-31
4 -6 83 c-4 45 -10 150 -13 233 l-7 150 128 13 c257 26 361 59 444 140 93 92
190 273 414 771 141 314 161 372 155 450 -5 74 -36 124 -195 323 l-122 152
187 188 c103 103 190 187 195 187 4 0 60 -42 125 -93 267 -213 338 -242 493
-202 74 20 962 375 1044 418 32 18 82 55 111 82 88 86 125 182 144 373 6 59
13 122 16 140 l5 32 262 -2 262 -3 6 -155z"/>
<path d="M8096 5530 c-169 -15 -262 -43 -467 -146 -285 -142 -544 -375 -708
-635 -56 -90 -153 -296 -187 -399 l-29 -85 0 -290 c0 -264 2 -299 23 -394 53
-242 150 -424 348 -652 311 -359 690 -542 1202 -579 340 -25 606 27 902 177
185 94 308 181 440 313 128 128 213 247 292 405 187 379 217 794 85 1195 -37
115 -136 313 -200 403 -188 264 -596 566 -857 636 -162 44 -609 70 -844 51z
m464 -740 c183 -23 290 -66 426 -174 230 -181 351 -485 315 -790 -24 -210 -88
-334 -257 -497 -182 -175 -393 -259 -649 -259 -311 0 -570 131 -747 376 -208
290 -241 568 -100 849 103 205 308 409 463 460 123 41 370 57 549 35z"/>
</g>
</svg>
