<svg xmlns="http://www.w3.org/2000/svg" width="24" height="24" fill="#665CAC" viewBox="0 0 24 24">
  <path d="M12 2C6.48 2 2 6.48 2 12c0 1.74.48 3.37 1.31 4.8l-1.1 4.1 4.2-1.08c1.4.85 3.03 1.3 4.7 1.3 5.52 0 10-4.48 10-10S17.52 2 12 2zm3.71 12.14c-.18.18-1.1.54-1.28.6-.17.07-.3.1-.43-.1-.13-.18-.5-.6-.62-.72-.12-.12-.25-.14-.43-.05-.17.08-.75.28-1.43.88-.53.47-.9 1.05-1.01 1.22-.12.18-.01.27.09.35.1.09.37.29.63.48.26.19.44.32.6.52.17.18.27.31.44.51.17.18.34.4.5.6.17.18.3.31.48.44.17.13.27.12.38.07.11-.05.62-.23 1.18-.88.55-.63.72-1.14.8-1.31.07-.17.01-.28-.12-.43z"/>
</svg>
